<svg height='300px' width='300px'  fill="#000000" xmlns="http://www.w3.org/2000/svg" xmlns:xlink="http://www.w3.org/1999/xlink" version="1.1" x="0px" y="0px" viewBox="0 0 90 90" enable-background="new 0 0 90 90" xml:space="preserve"><path d="M84.8,47c0,22-17.8,39.8-39.8,39.8S5.2,68.9,5.2,47c0-7.3,2-14.2,5.4-20.1l-6-6l4.8-4.8l-4.2-4.2l8.6-8.6l10,10  C30,9.5,37.3,7.2,45,7.2C67,7.2,84.8,25,84.8,47z M73.1,41c0-4.4-3.6-8-8-8h-41c-4.4,0-8,3.6-8,8s3.6,8,8,8h41  C69.5,49,73.1,45.4,73.1,41z M62.9,37c-2.1,0-3.9,1.7-3.9,3.9s1.7,3.9,3.9,3.9s3.9-1.7,3.9-3.9S65,37,62.9,37z M27.9,37  c-2.1,0-3.9,1.7-3.9,3.9s1.7,3.9,3.9,3.9s3.9-1.7,3.9-3.9S30,37,27.9,37z"></path></svg>